<svg width="210" height="297" viewBox="0 0 210 297" xmlns="http://www.w3.org/2000/svg">
  <rect width="210" height="297" fill="#ffffff" rx="4"/>
  <circle cx="105" cy="35" r="18" fill="#e5e7eb"/>
  <rect x="40" y="60" width="130" height="7" fill="#000000" rx="2"/>
  <rect x="55" y="72" width="100" height="5" fill="#4b5563" rx="1"/>
  <line x1="20" y1="95" x2="20" y2="295" stroke="#000000" stroke-width="3" stroke-linecap="round"/>
  <rect x="28" y="95" width="60" height="5" fill="#000000" rx="1"/>
  <rect x="28" y="105" width="170" height="1" fill="#e5e7eb"/>
  <rect x="28" y="113" width="140" height="3" fill="#9ca3af" rx="1"/>
  <rect x="28" y="121" width="150" height="3" fill="#9ca3af" rx="1"/>
  <rect x="28" y="129" width="130" height="3" fill="#9ca3af" rx="1"/>
  <rect x="28" y="143" width="60" height="5" fill="#000000" rx="1"/>
  <rect x="28" y="153" width="170" height="1" fill="#e5e7eb"/>
  <rect x="28" y="161" width="140" height="3" fill="#9ca3af" rx="1"/>
  <rect x="28" y="169" width="150" height="3" fill="#9ca3af" rx="1"/>
  <rect x="28" y="177" width="130" height="3" fill="#9ca3af" rx="1"/>
  <rect x="28" y="191" width="60" height="5" fill="#000000" rx="1"/>
  <rect x="28" y="201" width="170" height="1" fill="#e5e7eb"/>
  <rect x="28" y="209" width="140" height="3" fill="#9ca3af" rx="1"/>
  <rect x="28" y="217" width="150" height="3" fill="#9ca3af" rx="1"/>
  <rect x="28" y="231" width="60" height="5" fill="#000000" rx="1"/>
  <rect x="28" y="241" width="170" height="1" fill="#e5e7eb"/>
  <rect x="28" y="249" width="140" height="3" fill="#9ca3af" rx="1"/>
  <rect x="28" y="257" width="150" height="3" fill="#9ca3af" rx="1"/>
</svg>
